Coordinates
version=1
nRows=21
nColumns=12
inDegrees=yes

Units are S.I. units (second, meters, Newtons, ...)
Angles are in degrees

endheader
time	SC_y	SC_z	SC_x	AC_y	AC_z	AC_x	GH_y	GH_z	GH_yy	EL_x	PS_y
       0.0              -57.27          2.358           52.2          31.74          7.829          1.335         -158.4          29.86          31.48          119.7          124.4
   0.04395              -57.26          2.362           52.2          31.74          7.826          1.334         -158.4          29.86          31.47          119.7          124.3
   0.08791              -57.26          2.366          52.21          31.75          7.823          1.332         -158.4          29.86          31.47          119.7          124.3
    0.1319              -57.26          2.371          52.21          31.75           7.82           1.33         -158.3          29.86          31.46          119.7          124.3
    0.1758              -57.25          2.376          52.21          31.76          7.816          1.328         -158.3          29.86          31.45          119.7          124.3
    0.2198              -57.25          2.382          52.21          31.76          7.812          1.325         -158.3          29.86          31.44          119.6          124.3
    0.2637              -57.24          2.388          52.21          31.77          7.808          1.323         -158.3          29.86          31.43          119.6          124.3
    0.3077              -57.24          2.394          52.22          31.78          7.804           1.32         -158.3          29.86          31.42          119.6          124.2
    0.3516              -57.23            2.4          52.22          31.78          7.799          1.317         -158.3          29.87          31.41          119.6          124.2
    0.3956              -57.23          2.407          52.22          31.79          7.794          1.314         -158.3          29.87           31.4          119.6          124.2
    0.4395              -57.22          2.415          52.23           31.8          7.789          1.311         -158.3          29.87          31.39          119.5          124.2
    0.4835              -57.21          2.423          52.23          31.81          7.783          1.308         -158.2          29.87          31.38          119.5          124.1
    0.5274               -57.2          2.432          52.23          31.82          7.777          1.304         -158.2          29.87          31.36          119.5          124.1
    0.5714               -57.2          2.442          52.24          31.83           7.77            1.3         -158.2          29.87          31.35          119.4          124.1
    0.6153              -57.19          2.452          52.24          31.84          7.763          1.296         -158.2          29.88          31.33          119.4          124.1
    0.6593              -57.18          2.463          52.24          31.85          7.755          1.291         -158.2          29.88          31.31          119.4          124.0
    0.7032              -57.17          2.476          52.25          31.86          7.746          1.286         -158.1          29.88          31.29          119.3          124.0
    0.7472              -57.16          2.489          52.25          31.88          7.737           1.28         -158.1          29.88          31.27          119.3          123.9
    0.7911              -57.14          2.503          52.26          31.89          7.727          1.274         -158.1          29.89          31.25          119.2          123.9
    0.8351              -57.13          2.519          52.27          31.91          7.715          1.267         -158.1          29.89          31.22          119.2          123.8
    0.8791              -57.12          2.537          52.27          31.93          7.703           1.26         -158.0          29.89           31.2          119.1          123.8
